<svg xmlns="http://www.w3.org/2000/svg" shape-rendering="geometricPrecision" text-rendering="geometricPrecision" image-rendering="optimizeQuality" fill-rule="evenodd" clip-rule="evenodd" viewBox="0 0 512 506.3"><path fill="#fff" fill-rule="nonzero" d="M119.42 6.87h125.91l-60.09 62.8h-65.82c-15.62 0-29.77 6.34-39.97 16.53l-.12.13a56.351 56.351 0 00-16.54 39.97v317.24h317.25c15.63 0 29.77-6.34 39.97-16.54l.12-.12c10.2-10.2 16.54-24.35 16.54-39.97V322.1l62.79-65.59v130.4c0 32.73-13.42 62.55-35.05 84.24l-.2.2c-21.68 21.58-51.48 34.98-84.17 34.98H47.92c-13.08 0-25.02-5.38-33.75-14.05l-.18-.19C5.36 483.38 0 471.46 0 458.42V126.3c0-32.74 13.43-62.56 35.06-84.25l.19-.19C56.94 20.27 86.72 6.87 119.42 6.87zm184.8 311.78l-122.6 24.97 17.73-130.45 104.87 105.48zm-66.17-144.94L401.27 3.81c4.47-3.72 8.95-5.16 14.11-2.2l93.64 90.68c3.72 4.48 4.48 9.64-.76 14.87l-165.41 172.1-104.8-105.55z"/></svg>